<mxfile host="app.diagrams.net" agent="Mozilla/5.0 (Windows NT 10.0; Win64; x64) AppleWebKit/537.36 (KHTML, like Gecko) Chrome/128.0.0.0 Safari/537.36" version="24.7.12">
  <diagram name="主业务流程" id="TN5CUkhaLHbd2oRjrt3f">
    <mxGraphModel dx="1434" dy="746" grid="1" gridSize="10" guides="1" tooltips="1" connect="1" arrows="1" fold="1" page="1" pageScale="1" pageWidth="827" pageHeight="1169" math="0" shadow="0">
      <root>
        <mxCell id="0" />
        <mxCell id="1" parent="0" />
        <mxCell id="-HP2iidf-jjUAcL8wTlQ-2" value="产品管理" style="rounded=1;whiteSpace=wrap;html=1;" vertex="1" parent="1">
          <mxGeometry x="80" y="120" width="320" height="40" as="geometry" />
        </mxCell>
        <mxCell id="-HP2iidf-jjUAcL8wTlQ-3" value="环境管理" style="rounded=1;whiteSpace=wrap;html=1;" vertex="1" parent="1">
          <mxGeometry x="500" y="120" width="300" height="40" as="geometry" />
        </mxCell>
        <mxCell id="-HP2iidf-jjUAcL8wTlQ-12" style="edgeStyle=orthogonalEdgeStyle;rounded=0;orthogonalLoop=1;jettySize=auto;html=1;exitX=1;exitY=0.5;exitDx=0;exitDy=0;entryX=0;entryY=0.5;entryDx=0;entryDy=0;" edge="1" parent="1" source="-HP2iidf-jjUAcL8wTlQ-5" target="-HP2iidf-jjUAcL8wTlQ-19">
          <mxGeometry relative="1" as="geometry" />
        </mxCell>
        <mxCell id="-HP2iidf-jjUAcL8wTlQ-5" value="应用管理" style="rounded=1;whiteSpace=wrap;html=1;" vertex="1" parent="1">
          <mxGeometry x="280" y="200" width="120" height="40" as="geometry" />
        </mxCell>
        <mxCell id="-HP2iidf-jjUAcL8wTlQ-14" style="edgeStyle=orthogonalEdgeStyle;rounded=0;orthogonalLoop=1;jettySize=auto;html=1;exitX=1;exitY=0.5;exitDx=0;exitDy=0;" edge="1" parent="1" source="-HP2iidf-jjUAcL8wTlQ-6" target="-HP2iidf-jjUAcL8wTlQ-19">
          <mxGeometry relative="1" as="geometry" />
        </mxCell>
        <mxCell id="-HP2iidf-jjUAcL8wTlQ-6" value="配置管理" style="rounded=1;whiteSpace=wrap;html=1;" vertex="1" parent="1">
          <mxGeometry x="280" y="280" width="120" height="40" as="geometry" />
        </mxCell>
        <mxCell id="-HP2iidf-jjUAcL8wTlQ-7" value="应用规划" style="rounded=1;whiteSpace=wrap;html=1;" vertex="1" parent="1">
          <mxGeometry x="680" y="200" width="120" height="40" as="geometry" />
        </mxCell>
        <mxCell id="-HP2iidf-jjUAcL8wTlQ-8" value="配置规划" style="rounded=1;whiteSpace=wrap;html=1;" vertex="1" parent="1">
          <mxGeometry x="680" y="280" width="120" height="40" as="geometry" />
        </mxCell>
        <mxCell id="-HP2iidf-jjUAcL8wTlQ-10" style="edgeStyle=orthogonalEdgeStyle;rounded=0;orthogonalLoop=1;jettySize=auto;html=1;exitX=1;exitY=0.5;exitDx=0;exitDy=0;" edge="1" parent="1" source="-HP2iidf-jjUAcL8wTlQ-9" target="-HP2iidf-jjUAcL8wTlQ-5">
          <mxGeometry relative="1" as="geometry" />
        </mxCell>
        <mxCell id="-HP2iidf-jjUAcL8wTlQ-11" style="edgeStyle=orthogonalEdgeStyle;rounded=0;orthogonalLoop=1;jettySize=auto;html=1;exitX=1;exitY=0.5;exitDx=0;exitDy=0;" edge="1" parent="1" source="-HP2iidf-jjUAcL8wTlQ-9" target="-HP2iidf-jjUAcL8wTlQ-6">
          <mxGeometry relative="1" as="geometry" />
        </mxCell>
        <mxCell id="-HP2iidf-jjUAcL8wTlQ-9" value="产品发布" style="rounded=1;whiteSpace=wrap;html=1;" vertex="1" parent="1">
          <mxGeometry x="80" y="240" width="120" height="40" as="geometry" />
        </mxCell>
        <mxCell id="-HP2iidf-jjUAcL8wTlQ-20" style="edgeStyle=orthogonalEdgeStyle;rounded=0;orthogonalLoop=1;jettySize=auto;html=1;exitX=1;exitY=0.5;exitDx=0;exitDy=0;entryX=0;entryY=0.5;entryDx=0;entryDy=0;" edge="1" parent="1" source="-HP2iidf-jjUAcL8wTlQ-19" target="-HP2iidf-jjUAcL8wTlQ-7">
          <mxGeometry relative="1" as="geometry" />
        </mxCell>
        <mxCell id="-HP2iidf-jjUAcL8wTlQ-21" style="edgeStyle=orthogonalEdgeStyle;rounded=0;orthogonalLoop=1;jettySize=auto;html=1;exitX=1;exitY=0.5;exitDx=0;exitDy=0;entryX=0;entryY=0.5;entryDx=0;entryDy=0;" edge="1" parent="1" source="-HP2iidf-jjUAcL8wTlQ-19" target="-HP2iidf-jjUAcL8wTlQ-8">
          <mxGeometry relative="1" as="geometry" />
        </mxCell>
        <mxCell id="-HP2iidf-jjUAcL8wTlQ-19" value="环境升级/回滚" style="rounded=1;whiteSpace=wrap;html=1;" vertex="1" parent="1">
          <mxGeometry x="500" y="240" width="120" height="40" as="geometry" />
        </mxCell>
      </root>
    </mxGraphModel>
  </diagram>
</mxfile>
